<svg xmlns="http://www.w3.org/2000/svg" viewBox="0 0 32 32">
  <circle cx="16" cy="16" r="16" fill="#25D366"/>
  <path d="M23.5 8.5A10.4 10.4 0 0016 5.6C10.25 5.6 5.6 10.25 5.6 16c0 1.84.48 3.63 1.39 5.21L5.5 26.5l5.42-1.42A10.38 10.38 0 0016 26.4c5.75 0 10.4-4.65 10.4-10.4 0-2.78-1.08-5.39-3.04-7.35l.14-.15zm-7.5 16a8.6 8.6 0 01-4.39-1.2l-.31-.19-3.22.84.86-3.14-.2-.32A8.6 8.6 0 017.4 16c0-4.74 3.86-8.6 8.6-8.6 2.3 0 4.46.9 6.08 2.53A8.55 8.55 0 0124.6 16c0 4.74-3.86 8.6-8.6 8.6l.05-.1zm4.72-6.44c-.26-.13-1.53-.75-1.77-.84-.24-.09-.41-.13-.58.13-.17.26-.66.84-.81 1.01-.15.17-.3.19-.56.06a7.06 7.06 0 01-2.08-1.28 7.77 7.77 0 01-1.44-1.79c-.15-.26-.02-.4.11-.53.12-.11.26-.3.39-.45.13-.15.17-.26.26-.43.09-.17.04-.32-.02-.45-.06-.13-.58-1.4-.8-1.92-.21-.5-.43-.43-.58-.44h-.5c-.17 0-.45.06-.69.32-.24.26-.91.89-.91 2.17s.93 2.52 1.06 2.69c.13.17 1.83 2.8 4.44 3.93.62.27 1.1.43 1.48.55.62.2 1.19.17 1.63.1.5-.07 1.53-.62 1.74-1.22.21-.6.21-1.12.15-1.22-.06-.1-.23-.16-.5-.29l.08.1z" fill="#fff"/>
</svg>
